<?xml version="1.0" encoding="utf-8"?>
<!-- Generator: Adobe Illustrator 25.4.1, SVG Export Plug-In . SVG Version: 6.00 Build 0)  -->
<svg version="1.1" id="Layer_1" xmlns="http://www.w3.org/2000/svg" xmlns:xlink="http://www.w3.org/1999/xlink" x="0px" y="0px"
	 viewBox="0 0 1970.61 841.89" style="enable-background:new 0 0 1970.61 841.89;" xml:space="preserve">
<style type="text/css">
	.st0{stroke:#FFFFFF;stroke-miterlimit:10;}
</style>
<g>
	<path class="st0" d="M28.55,472.11v-121.5H78.5v15.3H50.75v35.4H73.4v15.45H50.75v55.35H28.55z"/>
	<path class="st0" d="M123.5,473.76c-8.6,0-15.45-1.6-20.55-4.8c-5.1-3.2-8.75-7.8-10.95-13.8c-2.2-6-3.3-13.1-3.3-21.3v-45.45
		c0-8.2,1.1-15.22,3.3-21.07c2.2-5.85,5.85-10.32,10.95-13.43c5.1-3.1,11.95-4.65,20.55-4.65c8.8,0,15.72,1.55,20.77,4.65
		c5.05,3.1,8.7,7.58,10.95,13.43s3.38,12.88,3.38,21.07v45.6c0,8.1-1.12,15.13-3.38,21.08c-2.25,5.95-5.9,10.55-10.95,13.8
		C139.22,472.13,132.3,473.76,123.5,473.76z M123.5,457.41c3.7,0,6.42-0.8,8.18-2.4c1.75-1.6,2.92-3.8,3.52-6.6
		c0.6-2.8,0.9-5.85,0.9-9.15v-55.95c0-3.4-0.3-6.45-0.9-9.15c-0.6-2.7-1.78-4.82-3.52-6.38c-1.75-1.55-4.48-2.32-8.18-2.32
		c-3.5,0-6.15,0.78-7.95,2.32c-1.8,1.55-3,3.68-3.6,6.38c-0.6,2.7-0.9,5.75-0.9,9.15v55.95c0,3.3,0.27,6.35,0.82,9.15
		c0.55,2.8,1.73,5,3.52,6.6C117.2,456.61,119.9,457.41,123.5,457.41z"/>
	<path class="st0" d="M174.95,472.11v-121.5h29.1c8.2,0,15.12,0.98,20.78,2.92c5.65,1.95,9.95,5.28,12.9,9.98
		c2.95,4.7,4.42,11.1,4.42,19.2c0,4.9-0.45,9.3-1.35,13.2c-0.9,3.9-2.43,7.23-4.58,9.98c-2.15,2.75-5.13,4.88-8.92,6.38l16.95,59.85
		h-22.2l-14.7-55.65h-10.2v55.65H174.95z M197.15,402.51h6.9c4.3,0,7.72-0.62,10.28-1.88c2.55-1.25,4.37-3.25,5.47-6
		c1.1-2.75,1.65-6.27,1.65-10.57c0-6.1-1.12-10.67-3.38-13.73c-2.25-3.05-6.53-4.58-12.83-4.58h-8.1V402.51z"/>
	<path class="st0" d="M307.69,472.11V366.96h-19.35v-16.35h60.6v16.35H329.9v105.15H307.69z"/>
	<path class="st0" d="M360.34,472.11v-121.5h22.05v50.85h24.75v-50.85h22.2v121.5h-22.2v-54.9h-24.75v54.9H360.34z"/>
	<path class="st0" d="M447.94,472.11v-121.5h51v15.6h-28.8v34.95h22.65v15.45h-22.65v40.2h29.1v15.3H447.94z"/>
	<path class="st0" d="M548.59,472.11v-121.5h35.7c7.3,0,13.22,1.35,17.78,4.05c4.55,2.7,7.9,6.63,10.05,11.78
		c2.15,5.15,3.23,11.38,3.23,18.67c0,7.9-1.35,14.28-4.05,19.12c-2.7,4.85-6.48,8.38-11.32,10.58c-4.85,2.2-10.58,3.3-17.18,3.3h-12
		v54H548.59z M570.79,402.51h8.4c4,0,7.12-0.57,9.38-1.73c2.25-1.15,3.8-3,4.65-5.55c0.85-2.55,1.27-5.97,1.27-10.27
		c0-4.4-0.33-7.97-0.97-10.73c-0.65-2.75-2.05-4.77-4.2-6.08c-2.15-1.3-5.53-1.95-10.12-1.95h-8.4V402.51z"/>
	<path class="st0" d="M615.04,472.11l24.3-121.5h23.7l24.3,121.5h-20.55l-4.8-28.05h-21.15l-4.95,28.05H615.04z M643.09,429.96h16.5
		l-8.25-51L643.09,429.96z"/>
	<path class="st0" d="M729.49,473.76c-7.3,0-13.4-1.43-18.3-4.28c-4.9-2.85-8.6-7.02-11.1-12.52c-2.5-5.5-3.9-12.25-4.2-20.25
		l19.05-3.75c0.2,4.7,0.77,8.85,1.72,12.45c0.95,3.6,2.4,6.38,4.35,8.33c1.95,1.95,4.52,2.92,7.72,2.92c3.6,0,6.15-1.07,7.65-3.22
		c1.5-2.15,2.25-4.88,2.25-8.18c0-5.3-1.2-9.65-3.6-13.05c-2.4-3.4-5.6-6.8-9.6-10.2l-15.3-13.5c-4.3-3.7-7.73-7.82-10.28-12.38
		c-2.55-4.55-3.83-10.17-3.83-16.88c0-9.6,2.8-17,8.4-22.2c5.6-5.2,13.25-7.8,22.95-7.8c5.7,0,10.45,0.88,14.25,2.62
		c3.8,1.75,6.82,4.18,9.07,7.27c2.25,3.1,3.92,6.63,5.03,10.58c1.1,3.95,1.8,8.13,2.1,12.52l-18.9,3.3c-0.2-3.8-0.63-7.2-1.28-10.2
		c-0.65-3-1.8-5.35-3.45-7.05c-1.65-1.7-4.08-2.55-7.27-2.55c-3.3,0-5.83,1.08-7.58,3.23c-1.75,2.15-2.62,4.83-2.62,8.02
		c0,4.1,0.85,7.48,2.55,10.12c1.7,2.65,4.15,5.38,7.35,8.18l15.15,13.35c5,4.2,9.27,9.13,12.83,14.78
		c3.55,5.65,5.33,12.48,5.33,20.47c0,5.8-1.28,10.95-3.83,15.45s-6.1,8.02-10.65,10.58C740.91,472.48,735.59,473.76,729.49,473.76z"
		/>
	<path class="st0" d="M785.14,472.11V366.96h-19.35v-16.35h60.6v16.35h-19.05v105.15H785.14z"/>
	<path class="st0" d="M899.59,473.76c-5.6,0-10.48-1.18-14.62-3.53c-4.15-2.35-7.35-5.65-9.6-9.9c-2.25-4.25-3.38-9.23-3.38-14.93
		c0-7.7,1.67-14.4,5.02-20.1c3.35-5.7,7.52-10.95,12.53-15.75c-1.9-3.6-3.85-7.22-5.85-10.88c-2-3.65-3.65-7.37-4.95-11.18
		c-1.3-3.8-1.95-7.65-1.95-11.55c0-5.2,1.05-9.8,3.15-13.8c2.1-4,5.1-7.17,9-9.52c3.9-2.35,8.6-3.52,14.1-3.52c5.1,0,9.57,1,13.42,3
		c3.85,2,6.92,4.83,9.23,8.48c2.3,3.65,3.45,7.93,3.45,12.82c0,5.4-1.18,10.4-3.52,15c-2.35,4.6-5.17,8.78-8.48,12.53
		c-3.3,3.75-6.5,7.23-9.6,10.42l16.2,27.75c1-1.8,1.85-4.1,2.55-6.9c0.7-2.8,1.28-5.8,1.72-9c0.45-3.2,0.77-6.15,0.98-8.85h16.2
		c0,4.9-0.48,9.55-1.43,13.95c-0.95,4.4-2.23,8.47-3.82,12.22c-1.6,3.75-3.35,7.23-5.25,10.43c1.2,1.4,2.77,2.62,4.72,3.67
		c1.95,1.05,4.02,1.63,6.22,1.73v17.25c-0.6,0.1-1.18,0.17-1.72,0.22c-0.55,0.05-1.08,0.08-1.58,0.08c-2.7-0.1-5.2-0.73-7.5-1.88
		c-2.3-1.15-4.4-2.57-6.3-4.27c-1.9-1.7-3.6-3.4-5.1-5.1c-2.6,3.3-5.9,5.98-9.9,8.03C909.54,472.73,904.89,473.76,899.59,473.76z
		 M900.04,458.76c3,0,5.6-0.75,7.8-2.25c2.2-1.5,4.1-3.25,5.7-5.25l-16.65-28.05c-2.3,3.3-4.05,6.78-5.25,10.42
		c-1.2,3.65-1.8,7.43-1.8,11.33c0,2.4,0.35,4.68,1.05,6.82c0.7,2.15,1.8,3.85,3.3,5.1C895.69,458.13,897.64,458.76,900.04,458.76z
		 M901.24,400.56c1.7-2.2,3.35-4.85,4.95-7.95c1.6-3.1,2.9-6.35,3.9-9.75c1-3.4,1.5-6.65,1.5-9.75c0-2.7-0.8-4.82-2.4-6.38
		c-1.6-1.55-3.6-2.33-6-2.33c-2.8,0-4.9,1.12-6.3,3.38c-1.4,2.25-2.1,4.98-2.1,8.18c0,4.3,0.7,8.58,2.1,12.82
		C898.29,393.03,899.74,396.96,901.24,400.56z"/>
	<path class="st0" d="M1010.58,472.11V366.96h-19.35v-16.35h60.6v16.35h-19.05v105.15H1010.58z"/>
	<path class="st0" d="M1095.33,473.76c-8.6,0-15.45-1.6-20.55-4.8c-5.1-3.2-8.75-7.8-10.95-13.8c-2.2-6-3.3-13.1-3.3-21.3v-45.45
		c0-8.2,1.1-15.22,3.3-21.07c2.2-5.85,5.85-10.32,10.95-13.43c5.1-3.1,11.95-4.65,20.55-4.65c8.8,0,15.72,1.55,20.77,4.65
		c5.05,3.1,8.7,7.58,10.95,13.43s3.38,12.88,3.38,21.07v45.6c0,8.1-1.12,15.13-3.38,21.08c-2.25,5.95-5.9,10.55-10.95,13.8
		C1111.06,472.13,1104.13,473.76,1095.33,473.76z M1095.33,457.41c3.7,0,6.42-0.8,8.17-2.4c1.75-1.6,2.92-3.8,3.52-6.6
		c0.6-2.8,0.9-5.85,0.9-9.15v-55.95c0-3.4-0.3-6.45-0.9-9.15c-0.6-2.7-1.78-4.82-3.52-6.38c-1.75-1.55-4.48-2.32-8.17-2.32
		c-3.5,0-6.15,0.78-7.95,2.32c-1.8,1.55-3,3.68-3.6,6.38c-0.6,2.7-0.9,5.75-0.9,9.15v55.95c0,3.3,0.27,6.35,0.83,9.15
		c0.55,2.8,1.72,5,3.52,6.6C1089.03,456.61,1091.73,457.41,1095.33,457.41z"/>
	<path class="st0" d="M1195.38,472.11V366.96h-19.35v-16.35h60.6v16.35h-19.05v105.15H1195.38z"/>
	<path class="st0" d="M1248.03,472.11v-121.5h22.05v50.85h24.75v-50.85h22.2v121.5h-22.2v-54.9h-24.75v54.9H1248.03z"/>
	<path class="st0" d="M1335.63,472.11v-121.5h51v15.6h-28.8v34.95h22.65v15.45h-22.65v40.2h29.1v15.3H1335.63z"/>
	<path class="st0" d="M1436.28,472.11v-121.5h49.95v15.3h-27.75v35.4h22.65v15.45h-22.65v55.35H1436.28z"/>
	<path class="st0" d="M1531.53,473.76c-9,0-16-1.65-21-4.95c-5-3.3-8.45-8-10.35-14.1c-1.9-6.1-2.85-13.4-2.85-21.9v-82.2h21.6
		v84.75c0,3.8,0.25,7.38,0.75,10.73c0.5,3.35,1.67,6.05,3.53,8.1c1.85,2.05,4.62,3.07,8.33,3.07c3.9,0,6.72-1.02,8.47-3.07
		c1.75-2.05,2.9-4.75,3.45-8.1c0.55-3.35,0.83-6.92,0.83-10.73v-84.75h21.45v82.2c0,8.5-0.95,15.8-2.85,21.9
		c-1.9,6.1-5.33,10.8-10.27,14.1C1547.65,472.11,1540.63,473.76,1531.53,473.76z"/>
	<path class="st0" d="M1595.28,472.11V366.96h-19.35v-16.35h60.6v16.35h-19.05v105.15H1595.28z"/>
	<path class="st0" d="M1680.93,473.76c-9,0-16-1.65-21-4.95c-5-3.3-8.45-8-10.35-14.1c-1.9-6.1-2.85-13.4-2.85-21.9v-82.2h21.6
		v84.75c0,3.8,0.25,7.38,0.75,10.73c0.5,3.35,1.67,6.05,3.53,8.1c1.85,2.05,4.62,3.07,8.33,3.07c3.9,0,6.72-1.02,8.47-3.07
		c1.75-2.05,2.9-4.75,3.45-8.1c0.55-3.35,0.83-6.92,0.83-10.73v-84.75h21.45v82.2c0,8.5-0.95,15.8-2.85,21.9
		c-1.9,6.1-5.33,10.8-10.27,14.1C1697.05,472.11,1690.03,473.76,1680.93,473.76z"/>
	<path class="st0" d="M1732.53,472.11v-121.5h29.1c8.2,0,15.12,0.98,20.78,2.92c5.65,1.95,9.95,5.28,12.9,9.98
		c2.95,4.7,4.42,11.1,4.42,19.2c0,4.9-0.45,9.3-1.35,13.2c-0.9,3.9-2.43,7.23-4.58,9.98c-2.15,2.75-5.13,4.88-8.92,6.38l16.95,59.85
		h-22.2l-14.7-55.65h-10.2v55.65H1732.53z M1754.72,402.51h6.9c4.3,0,7.72-0.62,10.28-1.88c2.55-1.25,4.37-3.25,5.47-6
		c1.1-2.75,1.65-6.27,1.65-10.57c0-6.1-1.12-10.67-3.38-13.73c-2.25-3.05-6.53-4.58-12.83-4.58h-8.1V402.51z"/>
	<path class="st0" d="M1816.67,472.11v-121.5h51v15.6h-28.8v34.95h22.65v15.45h-22.65v40.2h29.1v15.3H1816.67z"/>
</g>
</svg>
